<svg>
  <symbol width="32" height="32" viewBox="0 0 32 32" id="facebook" xmlns="http://www.w3.org/2000/svg">
    <path d="M2.66943 16.0026C2.67098 22.5618 7.44064 28.1467 13.9188 29.1746V19.856H10.5361V16.0026H13.9228V13.0693C13.7714 11.6794 14.2461 10.2941 15.2183 9.28922C16.1904 8.28434 17.5592 7.764 18.9534 7.86931C19.9541 7.88547 20.9524 7.9746 21.9401 8.13598V11.4146H20.2548C19.6746 11.3387 19.0912 11.5303 18.6691 11.9355C18.247 12.3408 18.0318 12.9158 18.0841 13.4986V16.0026H21.7788L21.1881 19.8573H18.0841V29.1746C25.0901 28.0674 30.0029 21.669 29.2634 14.6147C28.524 7.56047 22.3912 2.31988 15.3079 2.68955C8.22458 3.05921 2.67056 8.90972 2.66943 16.0026Z"/>
  </symbol>

  <symbol width="32" height="32" viewBox="0 0 32 32" id="twitter" xmlns="http://www.w3.org/2000/svg">
    <path d="M26.66 8.91736C27.8553 8.20281 28.7496 7.07767 29.176 5.75203C28.0529 6.41843 26.8241 6.88786 25.5427 7.14003C23.7661 5.26073 20.9514 4.80339 18.6712 6.02357C16.3911 7.24374 15.21 9.83934 15.788 12.36C11.1875 12.1291 6.90131 9.95591 3.99602 6.38136C2.47981 8.99659 3.25462 12.3397 5.76669 14.0214C4.8583 13.9922 3.97006 13.7462 3.17602 13.304C3.17602 13.328 3.17602 13.352 3.17602 13.376C3.17655 16.1002 5.09652 18.4468 7.76669 18.9867C6.92411 19.2159 6.0403 19.2497 5.18269 19.0854C5.93362 21.4151 8.08076 23.0111 10.528 23.0587C8.50113 24.6495 5.99799 25.5122 3.42135 25.508C2.96465 25.5087 2.5083 25.4824 2.05469 25.4294C4.67121 27.1107 7.71651 28.0032 10.8267 28C15.1537 28.0297 19.3121 26.3239 22.3717 23.264C25.4313 20.2042 27.1368 16.0457 27.1067 11.7187C27.1067 11.4707 27.1009 11.224 27.0894 10.9787C28.21 10.1688 29.1771 9.16556 29.9454 8.01603C28.9014 8.47878 27.794 8.78259 26.66 8.91736Z"/>
  </symbol>

  <symbol width="32" height="32" viewBox="0 0 32 32" id="instagram" xmlns="http://www.w3.org/2000/svg">
    <path d="M16.0027 28.0547C12.7227 28.0547 12.336 28.0373 11.056 27.9813C10.0578 27.9485 9.0726 27.7456 8.14269 27.3813C6.53377 26.7552 5.26154 25.4825 4.63602 23.8733C4.28576 22.94 4.09684 21.954 4.07735 20.9573C4.00269 19.68 4.00269 19.2613 4.00269 16.0067C4.00269 12.7173 4.02002 12.3333 4.07735 11.06C4.09727 10.0647 4.28618 9.08 4.63602 8.14799C5.26086 6.53669 6.53515 5.26288 8.14669 4.63865C9.07821 4.28692 10.0631 4.09751 11.0587 4.07865C12.332 4.00665 12.7507 4.00665 16.0027 4.00665C19.3094 4.00665 19.6894 4.02399 20.9494 4.07865C21.9475 4.09767 22.935 4.28707 23.8694 4.63865C25.4804 5.26359 26.7545 6.53715 27.38 8.14799C27.7362 9.09358 27.9261 10.0937 27.9414 11.104C28.016 12.3813 28.016 12.7987 28.016 16.052C28.016 19.3053 27.9974 19.732 27.9414 20.9947C27.9215 21.9923 27.7321 22.9792 27.3814 23.9133C26.7542 25.5236 25.4801 26.7968 23.8694 27.4227C22.9363 27.7722 21.9508 27.9611 20.9547 27.9813C19.6814 28.0547 19.264 28.0547 16.0027 28.0547ZM15.9574 6.11732C12.696 6.11732 12.3574 6.13332 11.084 6.19065C10.324 6.20072 9.57132 6.34097 8.85869 6.60532C7.80636 7.008 6.97365 7.83731 6.56669 8.88799C6.3003 9.60838 6.16003 10.3693 6.15202 11.1373C6.08135 12.4293 6.08135 12.768 6.08135 16.0067C6.08135 19.2067 6.09335 19.5947 6.15202 20.8787C6.16395 21.6389 6.30415 22.3917 6.56669 23.1053C6.97425 24.1553 7.80681 24.984 8.85869 25.3867C9.57084 25.6528 10.3238 25.7931 11.084 25.8013C12.3747 25.876 12.7147 25.876 15.9574 25.876C19.228 25.876 19.5667 25.86 20.8294 25.8013C21.5899 25.7921 22.3431 25.6518 23.056 25.3867C24.102 24.9805 24.9293 24.1537 25.336 23.108C25.6019 22.387 25.7421 21.6257 25.7507 20.8573H25.7654C25.8227 19.5827 25.8227 19.2427 25.8227 15.9853C25.8227 12.728 25.808 12.3853 25.7507 11.112C25.7387 10.3526 25.5985 9.60067 25.336 8.88799C24.9302 7.84075 24.1028 7.01238 23.056 6.60532C22.3433 6.33964 21.5899 6.19935 20.8294 6.19065C19.54 6.11732 19.2027 6.11732 15.9574 6.11732ZM16.0027 22.1653C13.5093 22.1669 11.2606 20.6663 10.3052 18.3633C9.34976 16.0602 9.87589 13.4084 11.6382 11.6446C13.4005 9.88077 16.0518 9.35235 18.3557 10.3058C20.6596 11.2592 22.1621 13.5066 22.1627 16C22.159 19.4014 19.4041 22.1587 16.0027 22.1653ZM16.0027 11.9973C13.7935 11.9973 12.0027 13.7882 12.0027 15.9973C12.0027 18.2065 13.7935 19.9973 16.0027 19.9973C18.2118 19.9973 20.0027 18.2065 20.0027 15.9973C19.9976 13.7903 18.2097 12.0025 16.0027 11.9973ZM22.4027 11.0467C21.6099 11.0437 20.9692 10.3994 20.9707 9.60666C20.9722 8.81389 21.6152 8.172 22.408 8.172C23.2008 8.172 23.8439 8.81388 23.8454 9.60665C23.8457 9.98914 23.6937 10.356 23.423 10.6262C23.1523 10.8964 22.7852 11.0477 22.4027 11.0467Z"/>
  </symbol>
</svg>